<svg width="40" height="40" viewBox="0 0 40 40" fill="none" xmlns="http://www.w3.org/2000/svg">
<path d="M20 33.3333L19.5134 34.207C19.8159 34.3754 20.1841 34.3754 20.4866 34.207L20 33.3333ZM20 11.937L19.0797 12.3281C19.2365 12.6973 19.5989 12.937 20 12.937C20.4011 12.937 20.7635 12.6973 20.9203 12.3281L20 11.937ZM4 14.9539C4 20.4322 8.06031 25.2862 11.8347 28.6496C13.7537 30.3597 15.6681 31.7454 17.1006 32.7027C17.8178 33.1821 18.4166 33.5557 18.838 33.8105C19.0488 33.9379 19.2153 34.0358 19.3303 34.1024C19.3878 34.1357 19.4324 34.1612 19.4633 34.1787C19.4787 34.1874 19.4906 34.1942 19.499 34.1989C19.5032 34.2013 19.5065 34.2031 19.5089 34.2045C19.5101 34.2051 19.5111 34.2057 19.5119 34.2061C19.5122 34.2063 19.5126 34.2065 19.5128 34.2066C19.5132 34.2068 19.5134 34.207 20 33.3333C20.4866 32.4597 20.4867 32.4598 20.4868 32.4598C20.4868 32.4598 20.4868 32.4598 20.4868 32.4598C20.4866 32.4597 20.4862 32.4595 20.4856 32.4591C20.4844 32.4584 20.4822 32.4573 20.4792 32.4556C20.4732 32.4522 20.4637 32.4468 20.4507 32.4394C20.4247 32.4247 20.3851 32.4021 20.3328 32.3717C20.228 32.3111 20.0723 32.2196 19.8729 32.0991C19.474 31.8578 18.901 31.5004 18.2119 31.0399C16.8319 30.1176 14.9963 28.7881 13.1653 27.1565C9.43969 23.8365 6 19.5007 6 14.9539H4ZM20.9203 11.5459C19.0725 7.19759 14.8801 5.2098 11.107 5.75487C9.21597 6.02806 7.42463 6.93935 6.10895 8.50731C4.79055 10.0785 4 12.2482 4 14.9539H6C6 12.647 6.66779 10.9528 7.64105 9.79288C8.61704 8.62973 9.9507 7.94268 11.393 7.73432C14.2865 7.31632 17.5942 8.83268 19.0797 12.3281L20.9203 11.5459ZM34 14.9539C34 19.5007 30.5603 23.8365 26.8347 27.1565C25.0037 28.7881 23.1681 30.1176 21.7881 31.0399C21.099 31.5004 20.526 31.8578 20.1271 32.0991C19.9277 32.2196 19.772 32.3111 19.6672 32.3717C19.6149 32.4021 19.5753 32.4247 19.5493 32.4394C19.5363 32.4468 19.5268 32.4522 19.5208 32.4556C19.5178 32.4573 19.5156 32.4584 19.5144 32.4591C19.5138 32.4595 19.5134 32.4597 19.5132 32.4598C19.5132 32.4598 19.5132 32.4598 19.5132 32.4598C19.5133 32.4598 19.5134 32.4597 20 33.3333C20.4866 34.207 20.4868 34.2068 20.4872 34.2066C20.4874 34.2065 20.4878 34.2063 20.4881 34.2061C20.4889 34.2057 20.4899 34.2051 20.4911 34.2045C20.4935 34.2031 20.4968 34.2013 20.501 34.1989C20.5094 34.1942 20.5213 34.1874 20.5367 34.1787C20.5676 34.1612 20.6122 34.1357 20.6697 34.1024C20.7847 34.0358 20.9512 33.9379 21.162 33.8105C21.5834 33.5557 22.1822 33.1821 22.8994 32.7027C24.3319 31.7454 26.2463 30.3597 28.1653 28.6496C31.9397 25.2862 36 20.4322 36 14.9539H34ZM20.9203 12.3281C22.4058 8.83268 25.7135 7.31632 28.607 7.73432C30.0493 7.94268 31.383 8.62973 32.359 9.79288C33.3322 10.9528 34 12.647 34 14.9539H36C36 12.2482 35.2095 10.0785 33.891 8.50731C32.5754 6.93935 30.784 6.02806 28.893 5.75487C25.1199 5.2098 20.9275 7.19759 19.0797 11.5459L20.9203 12.3281Z" fill="white"/>
</svg>
