<svg width="38" height="28" viewBox="0 0 38 28" fill="777777" xmlns="http://www.w3.org/2000/svg">
<path fill-rule="evenodd" clip-rule="evenodd" d="M12.4207 4C8.00238 4 4.42065 7.58172 4.42065 12C4.42065 16.4183 8.00238 20 12.4207 20C16.8389 20 20.4207 16.4183 20.4207 12C20.4207 7.58172 16.8389 4 12.4207 4ZM2.42065 12C2.42065 6.47715 6.89781 2 12.4207 2C17.9435 2 22.4207 6.47715 22.4207 12C22.4207 17.5228 17.9435 22 12.4207 22C6.89781 22 2.42065 17.5228 2.42065 12Z" fill="#777777"/>
<path fill-rule="evenodd" clip-rule="evenodd" d="M18.7135 18.2929C19.1041 17.9024 19.7372 17.9024 20.1278 18.2929L26.1278 24.2929C26.5183 24.6834 26.5183 25.3166 26.1278 25.7071C25.7372 26.0976 25.1041 26.0976 24.7135 25.7071L18.7135 19.7071C18.323 19.3166 18.323 18.6834 18.7135 18.2929Z" fill="#777777"/>
</svg>
