<svg width="41" height="40" viewBox="0 0 41 40" fill="none" xmlns="http://www.w3.org/2000/svg">
<path d="M29.0133 35C30.8985 35 32.4267 33.5077 32.4267 31.6667C32.4267 29.8258 30.8985 28.3334 29.0133 28.3334C27.1282 28.3334 25.6 29.8258 25.6 31.6667C25.6 33.5077 27.1282 35 29.0133 35Z" stroke="white" stroke-width="2" stroke-linecap="round" stroke-linejoin="round"/>
<path d="M13.6533 35C15.5385 35 17.0667 33.5077 17.0667 31.6667C17.0667 29.8258 15.5385 28.3334 13.6533 28.3334C11.7682 28.3334 10.24 29.8258 10.24 31.6667C10.24 33.5077 11.7682 35 13.6533 35Z" stroke="white" stroke-width="2" stroke-linecap="round" stroke-linejoin="round"/>
<path d="M5.12 5H7.15363C7.95839 5 8.65379 5.549 8.82242 6.31745L13.3642 27.0159C13.5329 27.7843 14.2283 28.3333 15.033 28.3333H29.0133" stroke="white" stroke-width="2" stroke-linecap="round" stroke-linejoin="round"/>
<path d="M10.24 10H33.5714C34.7071 10 35.526 11.063 35.2112 12.1286L32.2574 22.1286C32.0466 22.8421 31.378 23.3333 30.6176 23.3333H13.1938" stroke="white" stroke-width="2" stroke-linecap="round" stroke-linejoin="round"/>
</svg>
